<?xml version="1.0" encoding="UTF-8" standalone="no"?>
<!DOCTYPE svg PUBLIC "-//W3C//DTD SVG 1.1//EN"
 "http://www.w3.org/Graphics/SVG/1.1/DTD/svg11.dtd">
<!-- Generated by graphviz version 2.43.0 (0)
 -->
<!-- Title: finite_state_machine Pages: 1 -->
<svg width="1050pt" height="477pt"
 viewBox="0.00 0.00 1050.00 477.00" xmlns="http://www.w3.org/2000/svg" xmlns:xlink="http://www.w3.org/1999/xlink">
<g id="graph0" class="graph" transform="scale(1 1) rotate(0) translate(4 473)">
<title>finite_state_machine</title>
<polygon fill="white" stroke="transparent" points="-4,4 -4,-473 1046,-473 1046,4 -4,4"/>
<!-- 1 -->
<g id="node1" class="node">
<title>1</title>
<ellipse fill="none" stroke="black" cx="18" cy="-158" rx="18" ry="18"/>
<text text-anchor="middle" x="18" y="-154.3" font-family="Helvetica,Arial,sans-serif" font-size="14.00">1</text>
</g>
<!-- 9 -->
<g id="node2" class="node">
<title>9</title>
<ellipse fill="none" stroke="black" cx="139" cy="-318" rx="18" ry="18"/>
<text text-anchor="middle" x="139" y="-314.3" font-family="Helvetica,Arial,sans-serif" font-size="14.00">9</text>
</g>
<!-- 1&#45;&gt;9 -->
<g id="edge1" class="edge">
<title>1&#45;&gt;9</title>
<path fill="none" stroke="black" d="M19.02,-176.12C20.02,-203.35 25.82,-254.95 54,-286 68.71,-302.21 92.51,-310.26 111.03,-314.23"/>
<polygon fill="black" stroke="black" points="110.48,-317.69 120.95,-316.08 111.76,-310.81 110.48,-317.69"/>
<text text-anchor="middle" x="78.5" y="-314.8" font-family="Helvetica,Arial,sans-serif" font-size="14.00">121/524</text>
</g>
<!-- 7 -->
<g id="node3" class="node">
<title>7</title>
<ellipse fill="none" stroke="black" cx="782" cy="-105" rx="18" ry="18"/>
<text text-anchor="middle" x="782" y="-101.3" font-family="Helvetica,Arial,sans-serif" font-size="14.00">7</text>
</g>
<!-- 1&#45;&gt;7 -->
<g id="edge2" class="edge">
<title>1&#45;&gt;7</title>
<path fill="none" stroke="black" d="M23.23,-140.74C28.12,-124.04 37.67,-98.98 54,-83 83.16,-54.47 97.21,-46 138,-46 138,-46 138,-46 654,-46 694.06,-46 735.16,-70.44 759.37,-87.86"/>
<polygon fill="black" stroke="black" points="757.38,-90.74 767.49,-93.9 761.56,-85.13 757.38,-90.74"/>
<text text-anchor="middle" x="392" y="-49.8" font-family="Helvetica,Arial,sans-serif" font-size="14.00">0/811</text>
</g>
<!-- 5 -->
<g id="node4" class="node">
<title>5</title>
<ellipse fill="none" stroke="black" cx="524" cy="-266" rx="18" ry="18"/>
<text text-anchor="middle" x="524" y="-262.3" font-family="Helvetica,Arial,sans-serif" font-size="14.00">5</text>
</g>
<!-- 1&#45;&gt;5 -->
<g id="edge3" class="edge">
<title>1&#45;&gt;5</title>
<path fill="none" stroke="black" d="M35.36,-163.22C58.13,-170.01 100.76,-181 138,-181 138,-181 138,-181 393,-181 436.55,-181 453.3,-178.69 488,-205 499.52,-213.73 507.87,-227.43 513.51,-239.63"/>
<polygon fill="black" stroke="black" points="510.35,-241.14 517.47,-248.98 516.79,-238.4 510.35,-241.14"/>
<text text-anchor="middle" x="260" y="-184.8" font-family="Helvetica,Arial,sans-serif" font-size="14.00">0/879</text>
</g>
<!-- 6 -->
<g id="node5" class="node">
<title>6</title>
<ellipse fill="none" stroke="black" cx="903" cy="-145" rx="18" ry="18"/>
<text text-anchor="middle" x="903" y="-141.3" font-family="Helvetica,Arial,sans-serif" font-size="14.00">6</text>
</g>
<!-- 1&#45;&gt;6 -->
<g id="edge4" class="edge">
<title>1&#45;&gt;6</title>
<path fill="none" stroke="black" d="M36.03,-157.85C123.64,-157.06 532.48,-153.15 867,-146 869.55,-145.95 872.21,-145.88 874.87,-145.81"/>
<polygon fill="black" stroke="black" points="875.01,-149.31 884.91,-145.54 874.82,-142.31 875.01,-149.31"/>
<text text-anchor="middle" x="459.5" y="-156.8" font-family="Helvetica,Arial,sans-serif" font-size="14.00">343/954</text>
</g>
<!-- 9&#45;&gt;1 -->
<g id="edge5" class="edge">
<title>9&#45;&gt;1</title>
<path fill="none" stroke="black" d="M130.06,-302.01C123.93,-290.98 114.54,-276.64 103,-267 84.68,-251.7 70.54,-262.21 54,-245 38.29,-228.66 29.32,-204.36 24.4,-185.59"/>
<polygon fill="black" stroke="black" points="27.79,-184.74 22.07,-175.82 20.98,-186.36 27.79,-184.74"/>
<text text-anchor="middle" x="78.5" y="-270.8" font-family="Helvetica,Arial,sans-serif" font-size="14.00">0/524</text>
</g>
<!-- 3 -->
<g id="node6" class="node">
<title>3</title>
<ellipse fill="none" stroke="black" cx="1024" cy="-393" rx="18" ry="18"/>
<text text-anchor="middle" x="1024" y="-389.3" font-family="Helvetica,Arial,sans-serif" font-size="14.00">3</text>
</g>
<!-- 9&#45;&gt;3 -->
<g id="edge6" class="edge">
<title>9&#45;&gt;3</title>
<path fill="none" stroke="black" d="M140.57,-336.22C142.34,-360.92 149.19,-404.82 175,-430 202.79,-457.12 220.17,-454 259,-454 259,-454 259,-454 904,-454 942.83,-454 954.81,-450.15 988,-430 994.65,-425.96 1000.87,-420.33 1006.16,-414.67"/>
<polygon fill="black" stroke="black" points="1008.83,-416.93 1012.76,-407.09 1003.55,-412.34 1008.83,-416.93"/>
<text text-anchor="middle" x="588.5" y="-457.8" font-family="Helvetica,Arial,sans-serif" font-size="14.00">0/1053</text>
</g>
<!-- 4 -->
<g id="node7" class="node">
<title>4</title>
<ellipse fill="none" stroke="black" cx="260" cy="-335" rx="18" ry="18"/>
<text text-anchor="middle" x="260" y="-331.3" font-family="Helvetica,Arial,sans-serif" font-size="14.00">4</text>
</g>
<!-- 9&#45;&gt;4 -->
<g id="edge7" class="edge">
<title>9&#45;&gt;4</title>
<path fill="none" stroke="black" d="M155.64,-311.04C172.87,-304.39 201.16,-296.55 224,-305 229.87,-307.17 235.41,-310.81 240.29,-314.82"/>
<polygon fill="black" stroke="black" points="238.07,-317.54 247.8,-321.73 242.81,-312.38 238.07,-317.54"/>
<text text-anchor="middle" x="199.5" y="-308.8" font-family="Helvetica,Arial,sans-serif" font-size="14.00">343/766</text>
</g>
<!-- 7&#45;&gt;1 -->
<g id="edge15" class="edge">
<title>7&#45;&gt;1</title>
<path fill="none" stroke="black" d="M763.77,-103.22C739.36,-100.87 693.32,-97 654,-97 138,-97 138,-97 138,-97 99.17,-97 87.19,-100.85 54,-121 47.35,-125.04 41.13,-130.67 35.84,-136.33"/>
<polygon fill="black" stroke="black" points="33.17,-134.07 29.24,-143.91 38.45,-138.66 33.17,-134.07"/>
<text text-anchor="middle" x="392" y="-100.8" font-family="Helvetica,Arial,sans-serif" font-size="14.00">0/811</text>
</g>
<!-- 7&#45;&gt;6 -->
<g id="edge13" class="edge">
<title>7&#45;&gt;6</title>
<path fill="none" stroke="black" d="M798.52,-97.47C816.15,-90.07 845.28,-81.44 867,-93 877.66,-98.68 885.66,-109.21 891.3,-119.32"/>
<polygon fill="black" stroke="black" points="888.21,-120.96 895.82,-128.33 894.46,-117.82 888.21,-120.96"/>
<text text-anchor="middle" x="842.5" y="-96.8" font-family="Helvetica,Arial,sans-serif" font-size="14.00">0/837</text>
</g>
<!-- 0 -->
<g id="node9" class="node">
<title>0</title>
<ellipse fill="none" stroke="black" cx="653" cy="-231" rx="18" ry="18"/>
<text text-anchor="middle" x="653" y="-227.3" font-family="Helvetica,Arial,sans-serif" font-size="14.00">0</text>
</g>
<!-- 7&#45;&gt;0 -->
<g id="edge14" class="edge">
<title>7&#45;&gt;0</title>
<path fill="none" stroke="black" d="M770.55,-119.38C763.88,-128.23 754.85,-139.64 746,-149 723.34,-172.97 694.6,-197.81 675.33,-213.78"/>
<polygon fill="black" stroke="black" points="672.95,-211.2 667.44,-220.25 677.39,-216.61 672.95,-211.2"/>
<text text-anchor="middle" x="717.5" y="-204.8" font-family="Helvetica,Arial,sans-serif" font-size="14.00">121/1435</text>
</g>
<!-- 5&#45;&gt;1 -->
<g id="edge25" class="edge">
<title>5&#45;&gt;1</title>
<path fill="none" stroke="black" d="M505.89,-263.66C426.52,-252.71 96.23,-206.34 54,-187 48.71,-184.58 43.56,-181.14 38.91,-177.48"/>
<polygon fill="black" stroke="black" points="41.03,-174.69 31.17,-170.82 36.46,-179.99 41.03,-174.69"/>
<text text-anchor="middle" x="260" y="-232.8" font-family="Helvetica,Arial,sans-serif" font-size="14.00">0/879</text>
</g>
<!-- 5&#45;&gt;4 -->
<g id="edge23" class="edge">
<title>5&#45;&gt;4</title>
<path fill="none" stroke="black" d="M505.88,-266.19C477.48,-266.84 418.98,-269.58 371,-281 336.23,-289.27 327.46,-293.04 296,-310 291.55,-312.4 287.01,-315.28 282.73,-318.21"/>
<polygon fill="black" stroke="black" points="280.51,-315.5 274.44,-324.19 284.6,-321.18 280.51,-315.5"/>
<text text-anchor="middle" x="392" y="-284.8" font-family="Helvetica,Arial,sans-serif" font-size="14.00">0/1106</text>
</g>
<!-- 2 -->
<g id="node8" class="node">
<title>2</title>
<ellipse fill="none" stroke="black" cx="392" cy="-369" rx="18" ry="18"/>
<text text-anchor="middle" x="392" y="-365.3" font-family="Helvetica,Arial,sans-serif" font-size="14.00">2</text>
</g>
<!-- 5&#45;&gt;2 -->
<g id="edge24" class="edge">
<title>5&#45;&gt;2</title>
<path fill="none" stroke="black" d="M522.29,-283.94C520.32,-306.7 513.21,-345.22 488,-364 468.6,-378.45 440.3,-378 419.64,-374.97"/>
<polygon fill="black" stroke="black" points="420.07,-371.5 409.61,-373.22 418.86,-378.39 420.07,-371.5"/>
<text text-anchor="middle" x="459.5" y="-379.8" font-family="Helvetica,Arial,sans-serif" font-size="14.00">0/1054</text>
</g>
<!-- 5&#45;&gt;0 -->
<g id="edge26" class="edge">
<title>5&#45;&gt;0</title>
<path fill="none" stroke="black" d="M533.96,-250.86C540.07,-242.11 549.03,-231.89 560,-227 580.7,-217.77 606.68,-219.98 625.75,-223.8"/>
<polygon fill="black" stroke="black" points="625.03,-227.23 635.56,-226.03 626.58,-220.4 625.03,-227.23"/>
<text text-anchor="middle" x="588.5" y="-230.8" font-family="Helvetica,Arial,sans-serif" font-size="14.00">343/343</text>
</g>
<!-- 6&#45;&gt;1 -->
<g id="edge18" class="edge">
<title>6&#45;&gt;1</title>
<path fill="none" stroke="black" d="M896.95,-127.8C884.49,-89.39 848.46,0 783,0 138,0 138,0 138,0 95.44,0 80.97,-13.07 54,-46 34.21,-70.16 25.57,-105.55 21.82,-130.06"/>
<polygon fill="black" stroke="black" points="18.33,-129.77 20.46,-140.15 25.27,-130.71 18.33,-129.77"/>
<text text-anchor="middle" x="459.5" y="-3.8" font-family="Helvetica,Arial,sans-serif" font-size="14.00">0/954</text>
</g>
<!-- 6&#45;&gt;7 -->
<g id="edge16" class="edge">
<title>6&#45;&gt;7</title>
<path fill="none" stroke="black" d="M886.07,-138.32C880.13,-135.9 873.29,-133.23 867,-131 847.81,-124.21 825.83,-117.44 809.16,-112.51"/>
<polygon fill="black" stroke="black" points="810.13,-109.14 799.55,-109.69 808.16,-115.86 810.13,-109.14"/>
<text text-anchor="middle" x="842.5" y="-134.8" font-family="Helvetica,Arial,sans-serif" font-size="14.00">121/837</text>
</g>
<!-- 6&#45;&gt;3 -->
<g id="edge17" class="edge">
<title>6&#45;&gt;3</title>
<path fill="none" stroke="black" d="M916.57,-157.28C935.01,-176.01 969.24,-213.59 988,-252 1005.95,-288.73 1015.2,-335.48 1019.57,-364.83"/>
<polygon fill="black" stroke="black" points="1016.11,-365.39 1020.97,-374.81 1023.05,-364.42 1016.11,-365.39"/>
<text text-anchor="middle" x="963.5" y="-255.8" font-family="Helvetica,Arial,sans-serif" font-size="14.00">222/433</text>
</g>
<!-- 3&#45;&gt;9 -->
<g id="edge8" class="edge">
<title>3&#45;&gt;9</title>
<path fill="none" stroke="black" d="M1006.64,-398.22C983.87,-405.01 941.24,-416 904,-416 259,-416 259,-416 259,-416 212.43,-416 174.19,-370.73 154.47,-341.72"/>
<polygon fill="black" stroke="black" points="157.37,-339.76 148.96,-333.31 151.51,-343.59 157.37,-339.76"/>
<text text-anchor="middle" x="588.5" y="-419.8" font-family="Helvetica,Arial,sans-serif" font-size="14.00">222/1053</text>
</g>
<!-- 3&#45;&gt;6 -->
<g id="edge9" class="edge">
<title>3&#45;&gt;6</title>
<path fill="none" stroke="black" d="M1011.56,-379.65C993.66,-358.14 959.02,-313.87 939,-271 923.97,-238.82 914.24,-198.91 908.94,-172.74"/>
<polygon fill="black" stroke="black" points="912.35,-171.92 907,-162.77 905.48,-173.25 912.35,-171.92"/>
<text text-anchor="middle" x="963.5" y="-351.8" font-family="Helvetica,Arial,sans-serif" font-size="14.00">0/433</text>
</g>
<!-- 4&#45;&gt;9 -->
<g id="edge10" class="edge">
<title>4&#45;&gt;9</title>
<path fill="none" stroke="black" d="M241.98,-332.57C222.47,-329.78 190.21,-325.17 167.2,-321.89"/>
<polygon fill="black" stroke="black" points="167.44,-318.39 157.05,-320.44 166.45,-325.31 167.44,-318.39"/>
<text text-anchor="middle" x="199.5" y="-332.8" font-family="Helvetica,Arial,sans-serif" font-size="14.00">0/766</text>
</g>
<!-- 4&#45;&gt;5 -->
<g id="edge11" class="edge">
<title>4&#45;&gt;5</title>
<path fill="none" stroke="black" d="M277.7,-331.56C315.51,-323.63 410.41,-302.89 488,-279 491.16,-278.03 494.45,-276.93 497.69,-275.79"/>
<polygon fill="black" stroke="black" points="498.91,-279.07 507.1,-272.34 496.51,-272.49 498.91,-279.07"/>
<text text-anchor="middle" x="392" y="-313.8" font-family="Helvetica,Arial,sans-serif" font-size="14.00">0/1106</text>
</g>
<!-- 4&#45;&gt;2 -->
<g id="edge12" class="edge">
<title>4&#45;&gt;2</title>
<path fill="none" stroke="black" d="M278.01,-335.89C296.78,-337.26 327.68,-340.67 353,-349 357.79,-350.58 362.71,-352.72 367.35,-355.01"/>
<polygon fill="black" stroke="black" points="365.88,-358.2 376.35,-359.82 369.17,-352.02 365.88,-358.2"/>
<text text-anchor="middle" x="324.5" y="-352.8" font-family="Helvetica,Arial,sans-serif" font-size="14.00">343/1364</text>
</g>
<!-- 2&#45;&gt;5 -->
<g id="edge28" class="edge">
<title>2&#45;&gt;5</title>
<path fill="none" stroke="black" d="M407.33,-358.8C414.25,-354.17 422.82,-348.88 431,-345 455.13,-333.56 467.27,-342.84 488,-326 498.9,-317.15 507.12,-303.94 512.85,-292.17"/>
<polygon fill="black" stroke="black" points="516.18,-293.3 517.08,-282.75 509.79,-290.44 516.18,-293.3"/>
<text text-anchor="middle" x="459.5" y="-348.8" font-family="Helvetica,Arial,sans-serif" font-size="14.00">343/1054</text>
</g>
<!-- 2&#45;&gt;4 -->
<g id="edge27" class="edge">
<title>2&#45;&gt;4</title>
<path fill="none" stroke="black" d="M373.85,-371.24C354.29,-373.1 321.69,-374.03 296,-364 290.49,-361.85 285.2,-358.47 280.48,-354.76"/>
<polygon fill="black" stroke="black" points="282.5,-351.88 272.67,-347.94 277.9,-357.16 282.5,-351.88"/>
<text text-anchor="middle" x="324.5" y="-375.8" font-family="Helvetica,Arial,sans-serif" font-size="14.00">0/1364</text>
</g>
<!-- 0&#45;&gt;7 -->
<g id="edge19" class="edge">
<title>0&#45;&gt;7</title>
<path fill="none" stroke="black" d="M655.25,-212.94C657.8,-190.33 665.54,-151.91 689,-130 698.39,-121.23 730.22,-113.91 753.82,-109.5"/>
<polygon fill="black" stroke="black" points="754.75,-112.89 763.98,-107.68 753.52,-105.99 754.75,-112.89"/>
<text text-anchor="middle" x="717.5" y="-133.8" font-family="Helvetica,Arial,sans-serif" font-size="14.00">0/1435</text>
</g>
<!-- 0&#45;&gt;5 -->
<g id="edge21" class="edge">
<title>0&#45;&gt;5</title>
<path fill="none" stroke="black" d="M636.56,-238.37C630.55,-241.04 623.55,-243.91 617,-246 595.53,-252.87 570.49,-258.14 551.95,-261.54"/>
<polygon fill="black" stroke="black" points="551.11,-258.14 541.87,-263.33 552.33,-265.03 551.11,-258.14"/>
<text text-anchor="middle" x="588.5" y="-262.8" font-family="Helvetica,Arial,sans-serif" font-size="14.00">0/343</text>
</g>
<!-- 8 -->
<g id="node10" class="node">
<title>8</title>
<ellipse fill="none" stroke="black" cx="782" cy="-250" rx="18" ry="18"/>
<text text-anchor="middle" x="782" y="-246.3" font-family="Helvetica,Arial,sans-serif" font-size="14.00">8</text>
</g>
<!-- 0&#45;&gt;8 -->
<g id="edge20" class="edge">
<title>0&#45;&gt;8</title>
<path fill="none" stroke="black" d="M669.21,-239.54C675.19,-242.47 682.24,-245.41 689,-247 710.33,-252.01 735.2,-252.51 753.7,-251.9"/>
<polygon fill="black" stroke="black" points="753.95,-255.39 763.78,-251.44 753.63,-248.4 753.95,-255.39"/>
<text text-anchor="middle" x="717.5" y="-255.8" font-family="Helvetica,Arial,sans-serif" font-size="14.00">464/464</text>
</g>
<!-- 8&#45;&gt;0 -->
<g id="edge22" class="edge">
<title>8&#45;&gt;0</title>
<path fill="none" stroke="black" d="M767.57,-239.06C761.39,-234.72 753.72,-230.23 746,-228 724.59,-221.83 699.22,-223.27 680.54,-225.86"/>
<polygon fill="black" stroke="black" points="680,-222.4 670.67,-227.42 681.09,-229.32 680,-222.4"/>
<text text-anchor="middle" x="717.5" y="-231.8" font-family="Helvetica,Arial,sans-serif" font-size="14.00">0/464</text>
</g>
</g>
</svg>
