<?xml version="1.0" encoding="UTF-8" standalone="no"?>
<!DOCTYPE svg PUBLIC "-//W3C//DTD SVG 1.1//EN"
 "http://www.w3.org/Graphics/SVG/1.1/DTD/svg11.dtd">
<!-- Generated by graphviz version 2.43.0 (0)
 -->
<!-- Title: finite_state_machine Pages: 1 -->
<svg width="226pt" height="79pt"
 viewBox="0.00 0.00 226.00 79.00" xmlns="http://www.w3.org/2000/svg" xmlns:xlink="http://www.w3.org/1999/xlink">
<g id="graph0" class="graph" transform="scale(1 1) rotate(0) translate(4 75)">
<title>finite_state_machine</title>
<polygon fill="white" stroke="transparent" points="-4,4 -4,-75 222,-75 222,4 -4,4"/>
<!-- 1 -->
<g id="node1" class="node">
<title>1</title>
<ellipse fill="none" stroke="black" cx="18" cy="-35" rx="18" ry="18"/>
<text text-anchor="middle" x="18" y="-31.3" font-family="Helvetica,Arial,sans-serif" font-size="14.00">1</text>
</g>
<!-- 0 -->
<g id="node2" class="node">
<title>0</title>
<ellipse fill="none" stroke="black" cx="109" cy="-53" rx="18" ry="18"/>
<text text-anchor="middle" x="109" y="-49.3" font-family="Helvetica,Arial,sans-serif" font-size="14.00">0</text>
</g>
<!-- 1&#45;&gt;0 -->
<g id="edge1" class="edge">
<title>1&#45;&gt;0</title>
<path fill="none" stroke="black" d="M34.21,-43.53C40.2,-46.45 47.24,-49.4 54,-51 62.47,-53.01 71.9,-53.82 80.47,-54.05"/>
<polygon fill="black" stroke="black" points="80.74,-57.55 90.75,-54.06 80.75,-50.55 80.74,-57.55"/>
<text text-anchor="middle" x="63.5" y="-56.8" font-family="Helvetica,Arial,sans-serif" font-size="14.00">0/4</text>
</g>
<!-- 2 -->
<g id="node3" class="node">
<title>2</title>
<ellipse fill="none" stroke="black" cx="200" cy="-18" rx="18" ry="18"/>
<text text-anchor="middle" x="200" y="-14.3" font-family="Helvetica,Arial,sans-serif" font-size="14.00">2</text>
</g>
<!-- 1&#45;&gt;2 -->
<g id="edge2" class="edge">
<title>1&#45;&gt;2</title>
<path fill="none" stroke="black" d="M34.92,-28.04C49.27,-22.17 71.1,-14.23 91,-11 118.41,-6.55 150.18,-9.57 172.13,-12.92"/>
<polygon fill="black" stroke="black" points="171.61,-16.39 182.05,-14.56 172.75,-9.48 171.61,-16.39"/>
<text text-anchor="middle" x="109" y="-14.8" font-family="Helvetica,Arial,sans-serif" font-size="14.00">2/3</text>
</g>
<!-- 0&#45;&gt;1 -->
<g id="edge4" class="edge">
<title>0&#45;&gt;1</title>
<path fill="none" stroke="black" d="M94.16,-42.33C88.03,-38.25 80.51,-34.08 73,-32 64.38,-29.61 54.7,-29.42 45.94,-30.11"/>
<polygon fill="black" stroke="black" points="45.36,-26.66 35.84,-31.32 46.19,-33.61 45.36,-26.66"/>
<text text-anchor="middle" x="63.5" y="-35.8" font-family="Helvetica,Arial,sans-serif" font-size="14.00">2/2</text>
</g>
<!-- 0&#45;&gt;2 -->
<g id="edge3" class="edge">
<title>0&#45;&gt;2</title>
<path fill="none" stroke="black" d="M125.91,-46.74C139.12,-41.55 158.15,-34.06 173.48,-28.03"/>
<polygon fill="black" stroke="black" points="174.9,-31.24 182.93,-24.32 172.34,-24.72 174.9,-31.24"/>
<text text-anchor="middle" x="154.5" y="-41.8" font-family="Helvetica,Arial,sans-serif" font-size="14.00">4/4</text>
</g>
</g>
</svg>
