<?xml version="1.0" encoding="UTF-8" standalone="no"?>
<!DOCTYPE svg PUBLIC "-//W3C//DTD SVG 1.1//EN"
 "http://www.w3.org/Graphics/SVG/1.1/DTD/svg11.dtd">
<!-- Generated by graphviz version 2.43.0 (0)
 -->
<!-- Title: finite_state_machine Pages: 1 -->
<svg width="536pt" height="125pt"
 viewBox="0.00 0.00 536.00 125.00" xmlns="http://www.w3.org/2000/svg" xmlns:xlink="http://www.w3.org/1999/xlink">
<g id="graph0" class="graph" transform="scale(1 1) rotate(0) translate(4 121)">
<title>finite_state_machine</title>
<polygon fill="white" stroke="transparent" points="-4,4 -4,-121 532,-121 532,4 -4,4"/>
<!-- 2 -->
<g id="node1" class="node">
<title>2</title>
<ellipse fill="none" stroke="black" cx="135" cy="-63" rx="18" ry="18"/>
<text text-anchor="middle" x="135" y="-59.3" font-family="Helvetica,Arial,sans-serif" font-size="14.00">2</text>
</g>
<!-- 1 -->
<g id="node2" class="node">
<title>1</title>
<ellipse fill="none" stroke="black" cx="261" cy="-25" rx="18" ry="18"/>
<text text-anchor="middle" x="261" y="-21.3" font-family="Helvetica,Arial,sans-serif" font-size="14.00">1</text>
</g>
<!-- 2&#45;&gt;1 -->
<g id="edge1" class="edge">
<title>2&#45;&gt;1</title>
<path fill="none" stroke="black" d="M152.66,-58.84C168.92,-54.67 194.32,-47.91 216,-41 221.95,-39.1 228.3,-36.9 234.26,-34.75"/>
<polygon fill="black" stroke="black" points="235.63,-37.98 243.81,-31.24 233.22,-31.41 235.63,-37.98"/>
<text text-anchor="middle" x="195" y="-56.8" font-family="Helvetica,Arial,sans-serif" font-size="14.00">0./100.</text>
</g>
<!-- 0 -->
<g id="node3" class="node">
<title>0</title>
<ellipse fill="none" stroke="black" cx="396" cy="-78" rx="18" ry="18"/>
<text text-anchor="middle" x="396" y="-74.3" font-family="Helvetica,Arial,sans-serif" font-size="14.00">0</text>
</g>
<!-- 2&#45;&gt;0 -->
<g id="edge2" class="edge">
<title>2&#45;&gt;0</title>
<path fill="none" stroke="black" d="M152.52,-67.6C159.15,-69.26 166.89,-70.98 174,-72 243.23,-81.95 325.87,-80.78 367.76,-79.27"/>
<polygon fill="black" stroke="black" points="368.12,-82.76 377.97,-78.87 367.84,-75.77 368.12,-82.76"/>
<text text-anchor="middle" x="261" y="-83.8" font-family="Helvetica,Arial,sans-serif" font-size="14.00">10./100.</text>
</g>
<!-- 1&#45;&gt;2 -->
<g id="edge3" class="edge">
<title>1&#45;&gt;2</title>
<path fill="none" stroke="black" d="M243.36,-20.32C225.43,-16.18 196.45,-12.2 174,-22 165.31,-25.8 157.71,-32.67 151.64,-39.72"/>
<polygon fill="black" stroke="black" points="148.65,-37.87 145.25,-47.9 154.16,-42.18 148.65,-37.87"/>
<text text-anchor="middle" x="195" y="-25.8" font-family="Helvetica,Arial,sans-serif" font-size="14.00">0./100.</text>
</g>
<!-- 1&#45;&gt;0 -->
<g id="edge4" class="edge">
<title>1&#45;&gt;0</title>
<path fill="none" stroke="black" d="M278.77,-20.69C299.27,-16.39 334.39,-12.2 360,-26 370.63,-31.73 378.63,-42.27 384.27,-52.37"/>
<polygon fill="black" stroke="black" points="381.18,-54.01 388.8,-61.37 387.43,-50.87 381.18,-54.01"/>
<text text-anchor="middle" x="333" y="-29.8" font-family="Helvetica,Arial,sans-serif" font-size="14.00">10./100.</text>
</g>
<!-- 0&#45;&gt;2 -->
<g id="edge5" class="edge">
<title>0&#45;&gt;2</title>
<path fill="none" stroke="black" d="M379.69,-85.83C373.7,-88.55 366.67,-91.34 360,-93 305.6,-106.55 289.83,-104.08 234,-99 207,-96.55 199.16,-98.1 174,-88 168.59,-85.83 163.15,-82.84 158.14,-79.67"/>
<polygon fill="black" stroke="black" points="159.92,-76.65 149.68,-73.94 155.99,-82.45 159.92,-76.65"/>
<text text-anchor="middle" x="261" y="-105.8" font-family="Helvetica,Arial,sans-serif" font-size="14.00">&#45;10./100.</text>
</g>
<!-- 0&#45;&gt;1 -->
<g id="edge6" class="edge">
<title>0&#45;&gt;1</title>
<path fill="none" stroke="black" d="M378.97,-71.58C373.02,-69.2 366.2,-66.47 360,-64 335.38,-54.18 307.26,-42.99 287.48,-35.13"/>
<polygon fill="black" stroke="black" points="288.54,-31.78 277.96,-31.34 285.96,-38.29 288.54,-31.78"/>
<text text-anchor="middle" x="333" y="-67.8" font-family="Helvetica,Arial,sans-serif" font-size="14.00">&#45;10./100.</text>
</g>
<!-- 4 -->
<g id="node4" class="node">
<title>4</title>
<ellipse fill="none" stroke="black" cx="510" cy="-78" rx="18" ry="18"/>
<text text-anchor="middle" x="510" y="-74.3" font-family="Helvetica,Arial,sans-serif" font-size="14.00">4</text>
</g>
<!-- 0&#45;&gt;4 -->
<g id="edge7" class="edge">
<title>0&#45;&gt;4</title>
<path fill="none" stroke="black" d="M414.01,-78C431.94,-78 460.44,-78 481.56,-78"/>
<polygon fill="black" stroke="black" points="481.83,-81.5 491.83,-78 481.83,-74.5 481.83,-81.5"/>
<text text-anchor="middle" x="453" y="-81.8" font-family="Helvetica,Arial,sans-serif" font-size="14.00">20./20.</text>
</g>
<!-- 3 -->
<g id="node5" class="node">
<title>3</title>
<ellipse fill="none" stroke="black" cx="18" cy="-18" rx="18" ry="18"/>
<text text-anchor="middle" x="18" y="-14.3" font-family="Helvetica,Arial,sans-serif" font-size="14.00">3</text>
</g>
<!-- 3&#45;&gt;2 -->
<g id="edge9" class="edge">
<title>3&#45;&gt;2</title>
<path fill="none" stroke="black" d="M34.99,-24.26C53.94,-31.67 85.76,-44.12 108.2,-52.91"/>
<polygon fill="black" stroke="black" points="107.19,-56.27 117.77,-56.65 109.74,-49.75 107.19,-56.27"/>
<text text-anchor="middle" x="75" y="-50.8" font-family="Helvetica,Arial,sans-serif" font-size="14.00">10./10.</text>
</g>
<!-- 3&#45;&gt;1 -->
<g id="edge8" class="edge">
<title>3&#45;&gt;1</title>
<path fill="none" stroke="black" d="M35.99,-15.25C70.27,-10.18 150.06,-0.76 216,-11 222.09,-11.95 228.49,-13.59 234.46,-15.42"/>
<polygon fill="black" stroke="black" points="233.39,-18.75 243.99,-18.59 235.61,-12.11 233.39,-18.75"/>
<text text-anchor="middle" x="135" y="-11.8" font-family="Helvetica,Arial,sans-serif" font-size="14.00">10./10.</text>
</g>
</g>
</svg>
