<?xml version="1.0" encoding="UTF-8" standalone="no"?>
<!DOCTYPE svg PUBLIC "-//W3C//DTD SVG 1.1//EN"
 "http://www.w3.org/Graphics/SVG/1.1/DTD/svg11.dtd">
<!-- Generated by graphviz version 2.43.0 (0)
 -->
<!-- Title: finite_state_machine Pages: 1 -->
<svg width="460pt" height="180pt"
 viewBox="0.00 0.00 460.00 180.00" xmlns="http://www.w3.org/2000/svg" xmlns:xlink="http://www.w3.org/1999/xlink">
<g id="graph0" class="graph" transform="scale(1 1) rotate(0) translate(4 176)">
<title>finite_state_machine</title>
<polygon fill="white" stroke="transparent" points="-4,4 -4,-176 456,-176 456,4 -4,4"/>
<!-- 2 -->
<g id="node1" class="node">
<title>2</title>
<ellipse fill="none" stroke="black" cx="18" cy="-74" rx="18" ry="18"/>
<text text-anchor="middle" x="18" y="-70.3" font-family="Helvetica,Arial,sans-serif" font-size="14.00">2</text>
</g>
<!-- 0 -->
<g id="node2" class="node">
<title>0</title>
<ellipse fill="none" stroke="black" cx="98" cy="-148" rx="18" ry="18"/>
<text text-anchor="middle" x="98" y="-144.3" font-family="Helvetica,Arial,sans-serif" font-size="14.00">0</text>
</g>
<!-- 2&#45;&gt;0 -->
<g id="edge1" class="edge">
<title>2&#45;&gt;0</title>
<path fill="none" stroke="black" d="M30.67,-86.98C37.33,-94.23 45.94,-103.31 54,-111 60.86,-117.55 68.65,-124.41 75.69,-130.41"/>
<polygon fill="black" stroke="black" points="73.61,-133.24 83.52,-137.01 78.12,-127.89 73.61,-133.24"/>
<text text-anchor="middle" x="58" y="-121.8" font-family="Helvetica,Arial,sans-serif" font-size="14.00">8</text>
</g>
<!-- 4 -->
<g id="node3" class="node">
<title>4</title>
<ellipse fill="none" stroke="black" cx="354" cy="-94" rx="18" ry="18"/>
<text text-anchor="middle" x="354" y="-90.3" font-family="Helvetica,Arial,sans-serif" font-size="14.00">4</text>
</g>
<!-- 2&#45;&gt;4 -->
<g id="edge2" class="edge">
<title>2&#45;&gt;4</title>
<path fill="none" stroke="black" d="M26.86,-57.94C38.77,-36.18 63.59,0 97,0 97,0 97,0 275,0 310.13,0 332.46,-39.36 343.84,-67.14"/>
<polygon fill="black" stroke="black" points="340.68,-68.68 347.54,-76.76 347.21,-66.17 340.68,-68.68"/>
<text text-anchor="middle" x="186" y="-3.8" font-family="Helvetica,Arial,sans-serif" font-size="14.00">4</text>
</g>
<!-- 3 -->
<g id="node4" class="node">
<title>3</title>
<ellipse fill="none" stroke="black" cx="186" cy="-104" rx="18" ry="18"/>
<text text-anchor="middle" x="186" y="-100.3" font-family="Helvetica,Arial,sans-serif" font-size="14.00">3</text>
</g>
<!-- 0&#45;&gt;3 -->
<g id="edge3" class="edge">
<title>0&#45;&gt;3</title>
<path fill="none" stroke="black" d="M114.38,-140.13C127.22,-133.56 145.76,-124.08 160.62,-116.47"/>
<polygon fill="black" stroke="black" points="162.45,-119.47 169.76,-111.8 159.26,-113.24 162.45,-119.47"/>
<text text-anchor="middle" x="142" y="-132.8" font-family="Helvetica,Arial,sans-serif" font-size="14.00">10</text>
</g>
<!-- 1 -->
<g id="node5" class="node">
<title>1</title>
<ellipse fill="none" stroke="black" cx="274" cy="-154" rx="18" ry="18"/>
<text text-anchor="middle" x="274" y="-150.3" font-family="Helvetica,Arial,sans-serif" font-size="14.00">1</text>
</g>
<!-- 0&#45;&gt;1 -->
<g id="edge4" class="edge">
<title>0&#45;&gt;1</title>
<path fill="none" stroke="black" d="M116,-148.59C146.15,-149.63 209.21,-151.8 245.57,-153.05"/>
<polygon fill="black" stroke="black" points="245.82,-156.56 255.93,-153.41 246.06,-149.57 245.82,-156.56"/>
<text text-anchor="middle" x="186" y="-154.8" font-family="Helvetica,Arial,sans-serif" font-size="14.00">7</text>
</g>
<!-- 4&#45;&gt;2 -->
<g id="edge5" class="edge">
<title>4&#45;&gt;2</title>
<path fill="none" stroke="black" d="M340.37,-81.79C325.85,-69.08 300.67,-51 275,-51 97,-51 97,-51 97,-51 78.76,-51 59.07,-56.86 44.03,-62.66"/>
<polygon fill="black" stroke="black" points="42.36,-59.56 34.44,-66.6 45.02,-66.04 42.36,-59.56"/>
<text text-anchor="middle" x="186" y="-54.8" font-family="Helvetica,Arial,sans-serif" font-size="14.00">8</text>
</g>
<!-- 5 -->
<g id="node6" class="node">
<title>5</title>
<ellipse fill="none" stroke="black" cx="434" cy="-130" rx="18" ry="18"/>
<text text-anchor="middle" x="434" y="-126.3" font-family="Helvetica,Arial,sans-serif" font-size="14.00">5</text>
</g>
<!-- 4&#45;&gt;5 -->
<g id="edge6" class="edge">
<title>4&#45;&gt;5</title>
<path fill="none" stroke="black" d="M370.78,-101.29C381.46,-106.21 395.79,-112.83 408.01,-118.46"/>
<polygon fill="black" stroke="black" points="406.69,-121.71 417.24,-122.73 409.63,-115.36 406.69,-121.71"/>
<text text-anchor="middle" x="394" y="-116.8" font-family="Helvetica,Arial,sans-serif" font-size="14.00">6</text>
</g>
<!-- 3&#45;&gt;2 -->
<g id="edge9" class="edge">
<title>3&#45;&gt;2</title>
<path fill="none" stroke="black" d="M168.12,-100.95C139.26,-95.73 80.19,-85.06 45.69,-78.82"/>
<polygon fill="black" stroke="black" points="46.29,-75.38 35.83,-77.04 45.05,-82.26 46.29,-75.38"/>
<text text-anchor="middle" x="98" y="-94.8" font-family="Helvetica,Arial,sans-serif" font-size="14.00">2</text>
</g>
<!-- 3&#45;&gt;4 -->
<g id="edge8" class="edge">
<title>3&#45;&gt;4</title>
<path fill="none" stroke="black" d="M204.14,-102.97C232.84,-101.24 290.87,-97.74 325.39,-95.66"/>
<polygon fill="black" stroke="black" points="325.93,-99.14 335.7,-95.04 325.51,-92.15 325.93,-99.14"/>
<text text-anchor="middle" x="274" y="-102.8" font-family="Helvetica,Arial,sans-serif" font-size="14.00">5</text>
</g>
<!-- 3&#45;&gt;1 -->
<g id="edge10" class="edge">
<title>3&#45;&gt;1</title>
<path fill="none" stroke="black" d="M202.38,-111.66C212.61,-116.88 226.27,-124.06 238,-131 241.98,-133.35 246.14,-135.96 250.15,-138.54"/>
<polygon fill="black" stroke="black" points="248.27,-141.49 258.55,-144.06 252.12,-135.65 248.27,-141.49"/>
<text text-anchor="middle" x="230" y="-134.8" font-family="Helvetica,Arial,sans-serif" font-size="14.00">11</text>
</g>
<!-- 1&#45;&gt;4 -->
<g id="edge11" class="edge">
<title>1&#45;&gt;4</title>
<path fill="none" stroke="black" d="M288.94,-143.27C300.59,-134.31 317.41,-121.38 330.89,-111.01"/>
<polygon fill="black" stroke="black" points="333.38,-113.51 339.18,-104.63 329.12,-107.96 333.38,-113.51"/>
<text text-anchor="middle" x="314" y="-128.8" font-family="Helvetica,Arial,sans-serif" font-size="14.00">1</text>
</g>
<!-- 1&#45;&gt;5 -->
<g id="edge12" class="edge">
<title>1&#45;&gt;5</title>
<path fill="none" stroke="black" d="M291.91,-151.43C319.09,-147.3 372.75,-139.15 405.5,-134.18"/>
<polygon fill="black" stroke="black" points="406.37,-137.58 415.73,-132.62 405.32,-130.66 406.37,-137.58"/>
<text text-anchor="middle" x="354" y="-147.8" font-family="Helvetica,Arial,sans-serif" font-size="14.00">21</text>
</g>
<!-- 5&#45;&gt;4 -->
<g id="edge7" class="edge">
<title>5&#45;&gt;4</title>
<path fill="none" stroke="black" d="M424.04,-114.86C417.93,-106.11 408.97,-95.89 398,-91 393,-88.77 387.35,-88.06 381.83,-88.18"/>
<polygon fill="black" stroke="black" points="381.15,-84.73 371.57,-89.26 381.88,-91.69 381.15,-84.73"/>
<text text-anchor="middle" x="394" y="-94.8" font-family="Helvetica,Arial,sans-serif" font-size="14.00">8</text>
</g>
</g>
</svg>
